<svg xmlns="http://www.w3.org/2000/svg" height="43.804" width="213.46" viewBox="0 0 213.46 43.804">
	<path d="m213.46 33.462h-0.63125v-6.4925c-0.0987 0.28125-0.2025 0.57-0.3125 0.86625-0.11 0.295-0.84 2.17-2.1912 5.6262h-0.59l-2.0225-5.13c-0.085-0.20625-0.16375-0.4225-0.2375-0.65125-0.075-0.2275-0.15625-0.47375-0.245-0.7375v6.5188h-0.605v-7.2975h0.88l2.1075 5.3712c0.16625 0.4325 0.3025 0.83875 0.41 1.2138l0.41625-1.175 2.1012-5.41h0.92v7.2975m-12.551 0.13375c-0.71625 0-1.2725-0.1825-1.6725-0.55-0.3975-0.3675-0.59625-0.87625-0.59625-1.525 0-0.71 0.29625-1.2638 0.89-1.6575 0.5925-0.395 1.4512-0.6025 2.5738-0.625l1.39-0.04v-0.4825c0-0.695-0.14125-1.2188-0.4225-1.5725-0.2825-0.3525-0.73625-0.53-1.3638-0.53-0.675 0-1.3762 0.1875-2.1012 0.56375l-0.2475-0.5775c0.8-0.375 1.5925-0.56375 2.375-0.56375 0.8025 0 1.4 0.20875 1.7975 0.62375 0.395 0.4175 0.5925 1.0662 0.5925 1.9488v4.8538h-0.48875l-0.1675-1.155h-0.0538c-0.3675 0.47-0.745 0.80125-1.1312 0.9975-0.3875 0.19375-0.845 0.29125-1.3738 0.29125m2.5588-3.8475-1.2775 0.0537c-1.0238 0.05-1.755 0.21-2.19 0.48125-0.4375 0.27-0.65625 0.69125-0.65625 1.2638 0 0.4575 0.14 0.8125 0.42 1.065s0.675 0.38 1.185 0.38c0.77875 0 1.3938-0.2225 1.8438-0.66875 0.44875-0.445 0.675-1.0638 0.675-1.8562v-0.71875m-8.3287 3.7138h-0.65875v-6.7212h-2.49v-0.57625h5.5788v0.57625h-2.43v6.7212m-9.8588 3.3025h-0.665v-10.6h0.56375l0.12875 1.04h0.0387c0.50125-0.7875 1.3038-1.1825 2.405-1.1825 0.98375 0 1.7338 0.32375 2.2525 0.97125 0.51625 0.64625 0.775 1.5875 0.775 2.8238 0 1.1988-0.2725 2.1288-0.81625 2.7888s-1.2862 0.99-2.2262 0.99c-1.1225 0-1.9425-0.42125-2.4562-1.2625h-0.0475l0.0213 0.56375c0.0163 0.33125 0.0263 0.69375 0.0263 1.0875v2.78m2.4712-10.138c-0.85125 0-1.4762 0.23375-1.8738 0.70125-0.39875 0.4675-0.5975 1.23-0.5975 2.2862v0.21375c0 1.1425 0.19125 1.9575 0.57375 2.4438 0.3825 0.48875 1.0062 0.7325 1.87 0.7325 0.7475 0 1.3262-0.27625 1.735-0.8325 0.41-0.555 0.61375-1.3312 0.61375-2.3288 0-2.145-0.77375-3.2162-2.3212-3.2162m-8.5513 6.9688c-0.64 0-1.2038-0.15375-1.6925-0.46375-0.4875-0.3075-0.86125-0.7525-1.12-1.3288-0.26-0.5775-0.39125-1.245-0.39125-2.0012 0-1.19 0.29-2.1188 0.8675-2.7825 0.5775-0.665 1.3688-0.9975 2.3762-0.9975 1.0025 0 1.79 0.3375 2.36 1.0112 0.57125 0.67375 0.85625 1.5962 0.85625 2.7688 0 1.1912-0.28875 2.1212-0.86625 2.79-0.5775 0.66875-1.375 1.0038-2.39 1.0038m0.0137-6.9688c-0.80625 0-1.4275 0.27625-1.8638 0.82875-0.43625 0.5525-0.655 1.335-0.655 2.3462 0 1.0038 0.22125 1.7862 0.66125 2.3475 0.44125 0.56125 1.065 0.8425 1.87 0.8425 0.80625 0 1.43-0.28125 1.87-0.8425 0.44125-0.56125 0.6625-1.3438 0.6625-2.3475 0-1.0062-0.22375-1.7875-0.66875-2.3425-0.44625-0.555-1.0712-0.8325-1.8762-0.8325m-10.45 10.138h-0.665v-10.6h0.56375l0.12875 1.04h0.0387c0.50125-0.7875 1.3038-1.1825 2.405-1.1825 0.98375 0 1.735 0.32375 2.2525 0.97125 0.51625 0.64625 0.775 1.5875 0.775 2.8238 0 1.1988-0.2725 2.1288-0.81625 2.7888s-1.2862 0.99-2.2262 0.99c-1.1225 0-1.9425-0.42125-2.4562-1.2625h-0.0475l0.0212 0.56375c0.0175 0.33125 0.0263 0.69375 0.0263 1.0875v2.78m2.4712-10.138c-0.85125 0-1.4762 0.23375-1.8738 0.70125-0.39875 0.4675-0.5975 1.23-0.5975 2.2862v0.21375c0 1.1425 0.19125 1.9575 0.57375 2.4438 0.3825 0.48875 1.0062 0.7325 1.87 0.7325 0.7475 0 1.3262-0.27625 1.735-0.8325 0.41-0.555 0.61375-1.3312 0.61375-2.3288 0-2.145-0.77375-3.2162-2.3212-3.2162m-9.9274 10.138c-0.25375 0-0.5375-0.0462-0.85125-0.14125v-0.57625c0.26 0.0712 0.53875 0.1075 0.84 0.1075 0.22625 0 0.42875-0.0538 0.6025-0.16125 0.17625-0.1075 0.33375-0.275 0.47375-0.5 0.14125-0.22625 0.305-0.585 0.49125-1.075 0.185-0.49 0.305-0.80875 0.35875-0.95625l-2.7938-7.2975h0.685l1.545 4.0938c0.47 1.2588 0.7675 2.1075 0.8925 2.545h0.04c0.1875-0.5775 0.495-1.4388 0.92-2.5838l1.5438-4.055h0.685l-3.2688 8.4788c-0.265 0.69-0.48625 1.155-0.665 1.3962-0.18 0.24125-0.38875 0.4225-0.6275 0.545-0.24 0.11875-0.53 0.18-0.87125 0.18m-1.0838-3.3025h-0.8925l-3.4512-3.6988v3.6988h-0.6775v-7.2975h0.6775v3.545l3.2838-3.545h0.825l-3.2688 3.53 3.5038 3.7675m-14.145 0.13375c-0.64 0-1.2038-0.15375-1.6925-0.46375-0.4875-0.3075-0.86125-0.7525-1.1212-1.3288-0.26-0.5775-0.39-1.245-0.39-2.0012 0-1.19 0.28875-2.1188 0.8675-2.7825 0.57625-0.665 1.3688-0.9975 2.375-0.9975 1.0038 0 1.79 0.3375 2.3612 1.0112 0.57125 0.67375 0.85625 1.5962 0.85625 2.7688 0 1.1912-0.29 2.1212-0.86625 2.79-0.57875 0.66875-1.375 1.0038-2.39 1.0038m0.0125-6.9688c-0.80625 0-1.4262 0.27625-1.8638 0.82875-0.43625 0.5525-0.65375 1.335-0.65375 2.3462 0 1.0038 0.22 1.7862 0.66125 2.3475 0.44 0.56125 1.065 0.8425 1.87 0.8425 0.80625 0 1.4288-0.28125 1.87-0.8425 0.44-0.56125 0.6625-1.3438 0.6625-2.3475 0-1.0062-0.225-1.7875-0.66875-2.3425-0.4475-0.555-1.0725-0.8325-1.8775-0.8325m-5.3738 6.835h-0.665v-6.6675h-4.4912v6.6675h-0.665v-7.2975h5.8212v7.2975m46.191-13.772h-0.65875v-2.4775h-5.5862v2.4775h-0.6575v-3.1088h0.48375c0.6075-0.855 1.0775-1.8475 1.4088-2.975 0.3325-1.1288 0.50625-2.3588 0.525-3.6912h3.5112v6.6662h0.97375v3.1088m-3.9088-9.1575c-0.1075 2.42-0.69375 4.4375-1.7575 6.0488h4.0275v-6.0488h-2.27m-4.6288 6.68h-0.6375v-5.245l0.0263-1.4088-4.33 6.6538h-0.86625v-7.2975h0.63125v5.275l-0.04 1.3775 4.33-6.6525h0.88625v7.2975m-11.068 0h-0.665v-7.2975h4.2912v0.57625h-3.6262v6.7212m-6.9562 0h-9.2712v-7.2975h0.665v6.6662h3.6375v-6.6662h0.665v6.6662h3.64v-6.6662h0.66375v7.2975m-14.988 0.13375c-0.7175 0-1.2738-0.18375-1.6712-0.55-0.4-0.3675-0.59875-0.87625-0.59875-1.525 0-0.71 0.29625-1.2638 0.89-1.6575 0.5925-0.395 1.4512-0.6025 2.575-0.625l1.39-0.04v-0.4825c0-0.695-0.14125-1.2188-0.42375-1.5725-0.28125-0.3525-0.73625-0.53-1.3638-0.53-0.675 0-1.375 0.18875-2.1 0.56375l-0.25-0.5775c0.8025-0.375 1.595-0.56375 2.3775-0.56375 0.80125 0 1.4 0.20875 1.7962 0.62375 0.39625 0.4175 0.59375 1.0662 0.59375 1.9488v4.8538h-0.49l-0.1675-1.155h-0.0525c-0.3675 0.47-0.745 0.80125-1.1325 0.9975-0.38625 0.19375-0.845 0.29125-1.3725 0.29125m2.5575-3.8475-1.2762 0.0537c-1.0238 0.05-1.755 0.21-2.1912 0.48125-0.43625 0.27-0.65375 0.69125-0.65375 1.2638 0 0.4575 0.13875 0.8125 0.41875 1.065 0.27875 0.2525 0.675 0.38 1.185 0.38 0.77875 0 1.3925-0.2225 1.8425-0.66875 0.45-0.445 0.675-1.0638 0.675-1.8562v-0.71875m-9.845 3.7138h-3.0088v-9.8162h2.6925c1.2125 0 2.1038 0.20625 2.6725 0.6175 0.5675 0.41125 0.8525 1.0338 0.8525 1.8662 0 0.56875-0.17375 1.0412-0.52 1.42-0.34625 0.37875-0.855 0.62125-1.5212 0.72875v0.04c0.78375 0.11625 1.36 0.36375 1.7288 0.7425 0.36875 0.37875 0.55375 0.905 0.55375 1.5812 0 0.90375-0.3 1.6-0.89875 2.0875-0.6 0.4875-1.4512 0.7325-2.5512 0.7325m-2.3238-4.8412v4.2362h2.31c1.8162 0 2.725-0.73875 2.725-2.215 0-1.3475-0.9575-2.0212-2.8725-2.0212h-2.1625m0-4.3712v3.7675h2.1625c0.92125 0 1.5925-0.15375 2.01-0.46 0.41875-0.30625 0.6275-0.7875 0.6275-1.44 0-0.65375-0.235-1.1288-0.7075-1.4238-0.47125-0.295-1.1762-0.44375-2.1125-0.44375h-1.98m-16.136 34.32h0.8584v-40.216h-0.8584v40.216z" fill="#dedede"/>
</svg>
